<svg xmlns="http://www.w3.org/2000/svg" viewBox="0 0 32 32"><title>Artboard-30</title><g id="Crane"><path d="M26.9,12.2l-3-4a.5.5,0,0,0-.4-.2H14.707L10.854,4.146l-.006,0a.542.542,0,0,0-.534-.107l0,0h0l-4.994,2A.5.5,0,0,0,5,6.5v8a.5.5,0,0,0,1,0V13h4V27H6.5a.5.5,0,0,0,0,1h12a.5.5,0,0,0,0-1H15V13h7v4.5a.5.5,0,0,0,.5.5A1.5,1.5,0,1,1,21,19.5a.5.5,0,0,0-1,0,2.5,2.5,0,1,0,3-2.45V13h3.5a.5.5,0,0,0,.4-.8ZM11,5.707,13.293,8H11Zm-1-.469V8H6V6.839ZM14,23.5l-2.666-2L14,19.5Zm-3-3v-4l2.666,2Zm2.666,4L11,26.5v-4Zm-2.332-9L14,13.5v4ZM11,14.5V13h2ZM12,27l2-1.5V27Zm2.5-15H6V9H23.25l2.25,3Z"/></g></svg>